# xmcd CD database file
#
# Track frame offsets:
#	150
#	127104
#	163350
#	190547
#	236175
#	274715
#
# Disc length: 4189 seconds
#
# Revision: 1
# Processed by: cddbd v1.5.2PL0 Copyright (c) Steve Scherf et al.
# Submitted via: CDex 1.51
#
DISCID=55105b06
DTITLE=Beverly Rieger - The Beloved
DYEAR=1999
DGENRE=New Age
TTITLE0=The Beloved
TTITLE1=The Watchers
TTITLE2=Stille Pointe
TTITLE3=Chilam
TTITLE4=Walking the Labyrinth
TTITLE5=Mayan Portal
EXTD=YEAR: 1999
EXTT0=
EXTT1=
EXTT2=
EXTT3=
EXTT4=
EXTT5=
PLAYORDER=
